<svg xmlns="http://www.w3.org/2000/svg" xmlns:xlink="http://www.w3.org/1999/xlink" width="500" zoomAndPan="magnify" viewBox="0 0 375 374.999991" height="500" preserveAspectRatio="xMidYMid meet" version="1.0"><defs><clipPath id="f72bc648a9"><path d="M 98 77.542969 L 173 77.542969 L 173 123 L 98 123 Z M 98 77.542969 " clip-rule="nonzero"/></clipPath><clipPath id="b210827379"><path d="M 65.125 162.136719 L 204.367188 162.136719 L 204.367188 243.28125 L 65.125 243.28125 Z M 65.125 162.136719 " clip-rule="nonzero"/></clipPath><clipPath id="0e2af4c0d1"><path d="M 91 204.324219 L 99.398438 204.324219 L 99.398438 243.28125 L 91 243.28125 Z M 91 204.324219 " clip-rule="nonzero"/></clipPath><clipPath id="97e227819e"><path d="M 55.839844 235 L 319.066406 235 L 319.066406 243.28125 L 55.839844 243.28125 Z M 55.839844 235 " clip-rule="nonzero"/></clipPath><clipPath id="1739f5f3c9"><path d="M 163.664062 219 L 300.765625 219 L 300.765625 243.28125 L 163.664062 243.28125 Z M 163.664062 219 " clip-rule="nonzero"/></clipPath><clipPath id="b2c518fd4c"><path d="M 187.5 172.859375 L 226.5 172.859375 L 226.5 202.109375 L 187.5 202.109375 Z M 187.5 172.859375 " clip-rule="nonzero"/></clipPath><clipPath id="22a42199ab"><path d="M 214.664062 181.898438 L 228.914062 181.898438 L 228.914062 200.648438 L 214.664062 200.648438 Z M 214.664062 181.898438 " clip-rule="nonzero"/></clipPath><clipPath id="4e2c9e92e5"><path d="M 226.683594 183.375 L 240.183594 183.375 L 240.183594 208.875 L 226.683594 208.875 Z M 226.683594 183.375 " clip-rule="nonzero"/></clipPath><clipPath id="ee191e1200"><path d="M 238.324219 184.738281 L 251.074219 184.738281 L 251.074219 197.488281 L 238.324219 197.488281 Z M 238.324219 184.738281 " clip-rule="nonzero"/></clipPath><clipPath id="85f964a760"><path d="M 251.304688 183.375 L 267.054688 183.375 L 267.054688 199.125 L 251.304688 199.125 Z M 251.304688 183.375 " clip-rule="nonzero"/></clipPath><clipPath id="60d4af9164"><path d="M 262 177.277344 L 274.554688 177.277344 L 274.554688 199 L 262 199 Z M 262 177.277344 " clip-rule="nonzero"/></clipPath></defs><g clip-path="url(#f72bc648a9)"><path fill="#231f20" d="M 162.402344 122.222656 C 161.273438 122.222656 160.167969 121.753906 159.382812 120.925781 C 158.796875 120.308594 158.453125 119.621094 157.933594 118.582031 C 157.078125 116.882812 155.488281 113.714844 152.210938 109.554688 C 150.855469 107.839844 150.324219 107.261719 149.976562 106.925781 C 149.792969 106.746094 149.429688 106.402344 148.917969 105.976562 C 148.210938 106.664062 147.4375 107.269531 146.601562 107.789062 C 142.976562 110.058594 139.382812 109.96875 136.757812 109.90625 L 136.578125 109.902344 C 136.503906 109.898438 128.699219 109.722656 120.375 110.300781 L 119.976562 110.328125 C 117.238281 110.515625 114.652344 110.691406 112.71875 111.71875 C 111 112.636719 109.925781 114.765625 109.234375 118.621094 C 108.953125 120.171875 107.867188 121.449219 106.402344 121.964844 C 104.597656 122.601562 102.679688 122.007812 101.503906 120.445312 C 99.746094 118.109375 99.40625 114.996094 99.179688 112.933594 L 99.171875 112.863281 C 98.761719 109.125 98.25 102.4375 99.445312 99.589844 C 100.089844 98.046875 102.035156 94.027344 106.089844 90.105469 C 113.992188 82.460938 126.929688 79.464844 129.441406 78.941406 C 134.347656 77.921875 139.042969 77.558594 143.402344 77.863281 C 146.464844 78.078125 149.0625 78.460938 151.347656 79.042969 C 154.542969 79.851562 157.0625 81.441406 158.632812 83.644531 C 159.441406 84.773438 159.917969 85.890625 160.34375 86.882812 C 160.683594 87.679688 160.976562 88.367188 161.3125 88.722656 C 161.863281 89.3125 162.660156 89.886719 163.507812 90.488281 C 164.515625 91.210938 165.664062 92.027344 166.714844 93.105469 C 169.269531 95.710938 172.15625 100.089844 172.605469 104.574219 C 173.027344 108.8125 171.230469 112.421875 169.613281 115.09375 C 169.433594 115.390625 168.566406 116.742188 167.707031 117.996094 C 166.078125 120.386719 165 121.96875 162.839844 122.199219 C 162.695312 122.214844 162.550781 122.222656 162.402344 122.222656 Z M 148.140625 96.496094 C 149.867188 96.496094 151.25 97.464844 152.046875 98.023438 L 152.121094 98.074219 C 153.882812 99.300781 155.136719 100.457031 155.730469 101.035156 C 156.375 101.667969 157.121094 102.492188 158.664062 104.449219 C 160.445312 106.710938 161.796875 108.710938 162.824219 110.40625 C 164.058594 108.28125 164.550781 106.726562 164.421875 105.398438 C 164.234375 103.542969 162.730469 100.800781 160.84375 98.871094 C 160.296875 98.3125 159.535156 97.769531 158.734375 97.195312 C 157.648438 96.421875 156.417969 95.546875 155.304688 94.355469 C 153.980469 92.9375 153.3125 91.375 152.777344 90.121094 C 152.484375 89.429688 152.230469 88.835938 151.945312 88.4375 C 151.53125 87.859375 150.578125 87.34375 149.328125 87.027344 C 147.523438 86.570312 145.398438 86.261719 142.828125 86.082031 C 139.222656 85.832031 135.28125 86.144531 131.113281 87.007812 C 125.246094 88.226562 116.667969 91.320312 111.804688 96.03125 C 108.90625 98.832031 107.511719 101.660156 107.082031 102.644531 C 106.996094 103.070312 106.917969 104.101562 106.933594 105.710938 C 107.511719 105.25 108.148438 104.828125 108.847656 104.453125 C 112.335938 102.59375 116.097656 102.332031 119.414062 102.105469 L 119.808594 102.082031 C 128.527344 101.476562 136.445312 101.660156 136.777344 101.664062 L 136.960938 101.671875 C 138.972656 101.722656 140.710938 101.761719 142.25 100.800781 C 143.050781 100.300781 143.742188 99.574219 144.304688 98.644531 C 144.933594 97.605469 145.976562 96.859375 147.167969 96.601562 C 147.503906 96.527344 147.828125 96.496094 148.140625 96.496094 Z M 151.363281 102.878906 C 151.355469 102.890625 151.347656 102.902344 151.34375 102.917969 C 151.347656 102.902344 151.355469 102.890625 151.363281 102.878906 Z M 151.363281 102.878906 " fill-opacity="1" fill-rule="evenodd"/></g><path fill="#231f20" d="M 135.328125 166.496094 C 133.453125 166.496094 131.316406 166.316406 129.023438 165.808594 C 126.972656 165.355469 121.644531 163.839844 116.425781 159.5625 C 113.921875 157.507812 109.335938 152.984375 106.734375 145.730469 C 106.136719 144.070312 105.71875 142.304688 105.441406 140.929688 C 101.339844 138.828125 98.203125 134.777344 97.152344 130.023438 C 95.914062 124.425781 97.800781 118.945312 102.324219 114.992188 C 104.035156 113.496094 106.636719 113.671875 108.128906 115.386719 C 109.621094 117.097656 109.445312 119.699219 107.734375 121.195312 C 104.890625 123.683594 104.777344 126.402344 105.179688 128.242188 C 105.78125 130.953125 107.863281 133.328125 110.253906 134.019531 C 111.816406 134.476562 112.964844 135.8125 113.183594 137.425781 C 113.375 138.847656 113.828125 141.144531 114.472656 142.941406 C 116.480469 148.535156 120.152344 151.96875 121.636719 153.1875 C 125.589844 156.429688 129.644531 157.507812 130.792969 157.761719 C 134.976562 158.6875 138.417969 158.082031 139.699219 157.777344 C 143.203125 156.949219 145.585938 155.304688 146.609375 154.605469 C 147.34375 154.097656 149.265625 152.667969 151.234375 150.335938 C 154.089844 146.953125 156.199219 142.320312 157.347656 136.941406 C 157.699219 135.285156 159.019531 134.019531 160.6875 133.738281 C 162.414062 133.445312 164.746094 130.019531 165.003906 126.433594 C 165.261719 122.816406 163.386719 122.214844 162.769531 122.015625 C 160.605469 121.316406 159.417969 119 160.113281 116.832031 C 160.804688 114.667969 163.125 113.476562 165.285156 114.171875 C 170.621094 115.890625 173.65625 120.816406 173.207031 127.023438 C 172.8125 132.480469 169.675781 138.550781 164.847656 140.945312 C 163.324219 146.746094 160.863281 151.6875 157.515625 155.652344 C 155 158.636719 152.523438 160.527344 151.269531 161.390625 C 149.992188 162.273438 146.59375 164.613281 141.59375 165.792969 C 140.242188 166.113281 138.054688 166.496094 135.328125 166.496094 " fill-opacity="1" fill-rule="evenodd"/><path fill="#231f20" d="M 119.121094 176.683594 C 118.507812 176.683594 117.882812 176.546875 117.296875 176.25 C 115.261719 175.242188 114.429688 172.769531 115.441406 170.730469 C 116.203125 169.191406 117.496094 166.113281 117.582031 162.761719 C 117.613281 161.558594 117.472656 161.046875 117.183594 160.039062 C 117.097656 159.734375 117.003906 159.394531 116.90625 159.015625 C 116.339844 156.8125 117.667969 154.566406 119.867188 154 C 122.066406 153.4375 124.308594 154.765625 124.875 156.96875 C 124.945312 157.246094 125.019531 157.507812 125.097656 157.789062 C 125.460938 159.066406 125.871094 160.519531 125.804688 162.976562 C 125.675781 167.910156 123.875 172.246094 122.808594 174.394531 C 122.09375 175.839844 120.636719 176.683594 119.121094 176.683594 " fill-opacity="1" fill-rule="evenodd"/><path fill="#231f20" d="M 150.851562 177.644531 C 149.410156 177.644531 148.015625 176.886719 147.257812 175.535156 C 145.648438 172.65625 143.699219 168.140625 143.5625 162.976562 C 143.5 160.515625 143.910156 159.066406 144.269531 157.792969 C 144.300781 157.675781 144.335938 157.558594 144.367188 157.433594 C 144.976562 155.242188 147.246094 153.960938 149.433594 154.566406 C 151.625 155.175781 152.902344 157.449219 152.296875 159.640625 C 152.257812 159.773438 152.21875 159.902344 152.183594 160.03125 C 151.898438 161.046875 151.753906 161.554688 151.785156 162.761719 C 151.878906 166.242188 153.277344 169.4375 154.433594 171.507812 C 155.546875 173.496094 154.839844 176.003906 152.859375 177.113281 C 152.222656 177.472656 151.53125 177.644531 150.851562 177.644531 " fill-opacity="1" fill-rule="evenodd"/><g clip-path="url(#b210827379)"><path fill="#231f20" d="M 200.105469 243.28125 L 69.929688 243.28125 C 67.664062 243.28125 65.824219 241.441406 65.816406 239.171875 C 65.789062 229.839844 66.21875 206.496094 70.894531 191.40625 C 72.160156 187.316406 73.703125 183.976562 75.742188 180.886719 C 77.457031 178.296875 82.382812 171.789062 91.175781 167.3125 C 99.230469 163.214844 106.929688 162.601562 111.972656 162.8125 C 112.957031 162.851562 113.894531 163.246094 114.613281 163.921875 L 134.492188 182.609375 L 155.496094 163.851562 C 156.210938 163.21875 157.117188 162.851562 158.066406 162.8125 C 163.058594 162.605469 170.683594 163.203125 178.664062 167.214844 C 180.695312 168.238281 181.515625 170.710938 180.5 172.746094 C 179.476562 174.78125 177.007812 175.597656 174.976562 174.578125 C 169.285156 171.71875 163.808594 171.015625 159.839844 171.011719 L 137.160156 191.265625 C 135.566406 192.683594 133.160156 192.652344 131.605469 191.195312 L 110.136719 171.011719 C 106.132812 171.027344 100.625 171.742188 94.90625 174.65625 C 87.859375 178.242188 83.953125 183.386719 82.605469 185.433594 C 80.984375 187.886719 79.796875 190.480469 78.753906 193.847656 C 74.949219 206.121094 74.191406 225.320312 74.0625 235.042969 L 200.105469 235.039062 C 202.378906 235.039062 204.222656 236.886719 204.222656 239.160156 C 204.222656 241.433594 202.378906 243.28125 200.105469 243.28125 " fill-opacity="1" fill-rule="evenodd"/></g><g clip-path="url(#0e2af4c0d1)"><path fill="#231f20" d="M 95.125 243.28125 C 92.851562 243.28125 91.011719 241.4375 91.011719 239.160156 L 91.011719 208.5 C 91.011719 206.226562 92.851562 204.382812 95.125 204.382812 C 97.398438 204.382812 99.238281 206.226562 99.238281 208.5 L 99.238281 239.160156 C 99.238281 241.4375 97.398438 243.28125 95.125 243.28125 " fill-opacity="1" fill-rule="evenodd"/></g><g clip-path="url(#97e227819e)"><path fill="#231f20" d="M 314.960938 243.28125 L 59.957031 243.28125 C 57.683594 243.28125 55.839844 241.4375 55.839844 239.160156 C 55.839844 236.886719 57.683594 235.042969 59.957031 235.042969 L 314.960938 235.042969 C 317.234375 235.042969 319.074219 236.886719 319.074219 239.160156 C 319.074219 241.4375 317.234375 243.28125 314.960938 243.28125 " fill-opacity="1" fill-rule="evenodd"/></g><g clip-path="url(#1739f5f3c9)"><path fill="#231f20" d="M 280.527344 243.28125 L 183.738281 243.28125 C 172.804688 243.28125 163.90625 234.371094 163.90625 223.417969 C 163.90625 221.140625 165.746094 219.296875 168.015625 219.296875 L 296.25 219.296875 C 298.519531 219.296875 300.359375 221.140625 300.359375 223.417969 C 300.359375 234.371094 291.460938 243.28125 280.527344 243.28125 Z M 172.882812 227.535156 C 174.546875 231.917969 178.785156 235.042969 183.738281 235.042969 L 280.527344 235.042969 C 285.480469 235.042969 289.71875 231.917969 291.382812 227.535156 L 172.882812 227.535156 " fill-opacity="1" fill-rule="evenodd"/></g><path fill="#231f20" d="M 287.441406 227.535156 L 176.820312 227.535156 C 174.550781 227.535156 172.707031 225.691406 172.707031 223.417969 L 172.707031 159.746094 C 172.707031 153.691406 177.628906 148.765625 183.675781 148.765625 L 280.589844 148.765625 C 286.636719 148.765625 291.558594 153.691406 291.558594 159.746094 L 291.558594 223.417969 C 291.558594 225.691406 289.714844 227.535156 287.441406 227.535156 Z M 180.933594 219.296875 L 283.332031 219.296875 L 283.332031 159.746094 C 283.332031 158.234375 282.101562 157 280.589844 157 L 183.675781 157 C 182.164062 157 180.933594 158.234375 180.933594 159.746094 L 180.933594 219.296875 " fill-opacity="1" fill-rule="evenodd"/><path fill="#231f20" d="M 213.683594 131.277344 C 212.8125 131.277344 211.9375 131 211.191406 130.429688 L 189.34375 113.71875 C 188.324219 112.9375 187.726562 111.730469 187.726562 110.445312 C 187.726562 109.160156 188.324219 107.953125 189.34375 107.171875 L 211.191406 90.460938 C 212.996094 89.082031 215.578125 89.429688 216.953125 91.234375 C 218.335938 93.042969 217.988281 95.628906 216.183594 97.007812 L 198.613281 110.445312 L 216.183594 123.882812 C 217.988281 125.261719 218.335938 127.847656 216.953125 129.65625 C 216.144531 130.71875 214.921875 131.273438 213.683594 131.277344 " fill-opacity="1" fill-rule="evenodd"/><path fill="#231f20" d="M 250.582031 131.277344 C 249.34375 131.277344 248.121094 130.71875 247.3125 129.65625 C 245.933594 127.847656 246.277344 125.261719 248.082031 123.882812 L 265.648438 110.445312 L 248.082031 97.007812 C 246.277344 95.628906 245.933594 93.042969 247.3125 91.234375 C 248.6875 89.429688 251.269531 89.082031 253.074219 90.460938 L 274.921875 107.171875 C 275.941406 107.953125 276.539062 109.160156 276.539062 110.445312 C 276.539062 111.730469 275.941406 112.9375 274.921875 113.71875 L 253.074219 130.425781 C 252.332031 131 251.453125 131.273438 250.582031 131.277344 " fill-opacity="1" fill-rule="evenodd"/><path fill="#231f20" d="M 224.996094 140.148438 C 224.628906 140.148438 224.257812 140.097656 223.886719 139.992188 C 221.699219 139.382812 220.421875 137.109375 221.03125 134.917969 L 235.3125 83.753906 C 235.921875 81.5625 238.191406 80.285156 240.378906 80.898438 C 242.566406 81.507812 243.84375 83.78125 243.234375 85.972656 L 228.953125 137.136719 C 228.445312 138.957031 226.796875 140.148438 224.996094 140.148438 " fill-opacity="1" fill-rule="evenodd"/><g clip-path="url(#b2c518fd4c)"><path fill="#000000" d="M 226.460938 186.179688 C 226.417969 186.125 226.339844 186.117188 226.28125 186.15625 C 225.269531 186.894531 224.191406 187.523438 223.066406 188.023438 C 221.941406 188.539062 220.777344 188.917969 219.578125 189.210938 C 217.191406 189.78125 214.730469 189.949219 212.277344 189.871094 C 212.109375 189.863281 211.9375 189.851562 211.769531 189.84375 C 211.664062 189.324219 211.566406 188.804688 211.46875 188.285156 L 211.113281 186.425781 C 210.992188 185.808594 210.878906 185.183594 210.746094 184.5625 C 210.496094 183.328125 210.238281 182.085938 209.960938 180.851562 C 209.679688 179.617188 209.386719 178.382812 209.0625 177.144531 C 208.902344 176.527344 208.730469 175.902344 208.539062 175.269531 C 208.441406 174.953125 208.335938 174.636719 208.199219 174.285156 C 208.164062 174.195312 208.125 174.109375 208.085938 174.011719 C 208.042969 173.914062 207.996094 173.816406 207.921875 173.683594 C 207.882812 173.621094 207.84375 173.554688 207.777344 173.464844 C 207.761719 173.441406 207.746094 173.417969 207.71875 173.394531 C 207.695312 173.367188 207.679688 173.34375 207.648438 173.3125 C 207.613281 173.277344 207.589844 173.253906 207.542969 173.214844 C 207.5 173.179688 207.453125 173.140625 207.386719 173.101562 C 207.324219 173.058594 207.25 173.011719 207.128906 172.960938 C 207.039062 172.921875 206.847656 172.871094 206.667969 172.863281 C 206.488281 172.863281 206.335938 172.890625 206.207031 172.9375 C 206.09375 172.976562 205.980469 173.035156 205.921875 173.074219 C 205.84375 173.125 205.792969 173.164062 205.746094 173.207031 C 205.695312 173.246094 205.671875 173.269531 205.632812 173.3125 C 205.601562 173.34375 205.574219 173.367188 205.550781 173.402344 C 205.527344 173.425781 205.511719 173.449219 205.496094 173.472656 C 205.363281 173.652344 205.308594 173.765625 205.25 173.871094 C 205.195312 173.976562 205.15625 174.074219 205.113281 174.164062 C 205.03125 174.34375 204.96875 174.507812 204.910156 174.667969 C 204.789062 174.992188 204.683594 175.300781 204.585938 175.609375 C 204.386719 176.226562 204.207031 176.835938 204.019531 177.445312 C 203.835938 178.054688 203.664062 178.65625 203.488281 179.265625 L 202.960938 181.078125 C 202.28125 183.433594 201.601562 185.773438 200.847656 188.074219 L 199.472656 187.75 C 199.15625 187.675781 198.847656 187.609375 198.507812 187.546875 C 198.339844 187.511719 198.167969 187.480469 197.972656 187.457031 C 197.878906 187.449219 197.773438 187.433594 197.652344 187.433594 C 197.585938 187.433594 197.519531 187.433594 197.433594 187.433594 C 197.34375 187.441406 197.253906 187.449219 197.09375 187.488281 C 197.011719 187.511719 196.921875 187.539062 196.792969 187.609375 C 196.726562 187.644531 196.664062 187.691406 196.582031 187.757812 C 196.507812 187.820312 196.429688 187.902344 196.355469 188.007812 C 196.28125 188.113281 196.234375 188.238281 196.203125 188.359375 C 196.167969 188.480469 196.160156 188.59375 196.160156 188.691406 C 196.160156 188.886719 196.203125 189.015625 196.234375 189.113281 C 196.25 189.164062 196.265625 189.203125 196.289062 189.242188 C 196.316406 189.292969 196.332031 189.324219 196.347656 189.359375 C 196.363281 189.390625 196.386719 189.421875 196.414062 189.457031 C 196.429688 189.480469 196.453125 189.503906 196.46875 189.527344 C 196.542969 189.625 196.605469 189.691406 196.671875 189.746094 C 196.792969 189.863281 196.898438 189.933594 196.996094 190 C 197.09375 190.066406 197.179688 190.113281 197.269531 190.171875 C 197.609375 190.363281 197.925781 190.503906 198.234375 190.632812 C 198.75 190.851562 199.253906 191.046875 199.753906 191.234375 C 199.691406 191.40625 199.625 191.582031 199.5625 191.753906 C 199.34375 192.332031 199.109375 192.898438 198.871094 193.460938 C 198.628906 194.03125 198.378906 194.582031 198.113281 195.125 C 197.578125 196.222656 196.988281 197.277344 196.300781 198.230469 C 195.949219 198.699219 195.578125 199.15625 195.164062 199.546875 C 194.753906 199.9375 194.308594 200.277344 193.828125 200.511719 C 193.34375 200.75 192.828125 200.886719 192.292969 200.878906 C 191.75 200.878906 191.199219 200.742188 190.664062 200.503906 C 190.128906 200.269531 189.613281 199.953125 189.128906 199.578125 C 188.882812 199.390625 188.640625 199.195312 188.414062 198.984375 C 188.179688 198.78125 187.953125 198.5625 187.734375 198.34375 C 187.695312 198.304688 187.628906 198.292969 187.574219 198.328125 C 187.515625 198.367188 187.5 198.449219 187.539062 198.507812 C 187.71875 198.773438 187.914062 199.027344 188.105469 199.277344 C 188.300781 199.53125 188.519531 199.773438 188.738281 200.007812 C 189.183594 200.480469 189.6875 200.917969 190.261719 201.277344 C 190.835938 201.632812 191.492188 201.910156 192.210938 202.007812 C 192.921875 202.105469 193.675781 202.015625 194.355469 201.78125 C 195.035156 201.535156 195.652344 201.171875 196.203125 200.75 C 196.753906 200.324219 197.238281 199.847656 197.683594 199.34375 C 198.128906 198.839844 198.53125 198.3125 198.914062 197.773438 C 199.285156 197.230469 199.640625 196.679688 199.964844 196.117188 C 200.296875 195.558594 200.605469 194.980469 200.898438 194.402344 C 201.1875 193.828125 201.464844 193.242188 201.730469 192.65625 C 201.828125 192.445312 201.917969 192.234375 202.015625 192.023438 C 202.546875 192.210938 203.074219 192.386719 203.609375 192.574219 C 204.78125 192.980469 205.949219 193.394531 207.097656 193.851562 C 208.238281 194.296875 209.371094 194.785156 210.441406 195.363281 C 211.128906 195.734375 211.800781 196.148438 212.414062 196.621094 C 212.707031 197.597656 213.007812 198.570312 213.320312 199.539062 C 213.417969 199.839844 213.53125 200.140625 213.636719 200.449219 C 213.75 200.75 213.871094 201.050781 214.027344 201.359375 C 214.066406 201.4375 214.105469 201.511719 214.15625 201.59375 C 214.203125 201.675781 214.261719 201.757812 214.351562 201.851562 C 214.398438 201.902344 214.457031 201.949219 214.570312 202.007812 C 214.617188 202.03125 214.699219 202.054688 214.777344 202.046875 C 214.859375 202.046875 214.957031 202.023438 215.023438 201.984375 C 215.160156 201.902344 215.207031 201.820312 215.25 201.757812 C 215.289062 201.691406 215.3125 201.632812 215.328125 201.585938 C 215.402344 201.382812 215.433594 201.210938 215.457031 201.039062 C 215.484375 200.871094 215.5 200.707031 215.515625 200.539062 C 215.539062 200.1875 215.523438 199.839844 215.46875 199.496094 C 215.410156 199.15625 215.320312 198.816406 215.191406 198.488281 C 215.070312 198.164062 214.910156 197.855469 214.730469 197.5625 C 214.550781 197.269531 214.359375 196.996094 214.148438 196.726562 C 213.792969 196.28125 213.394531 195.875 212.980469 195.492188 C 212.699219 194.328125 212.449219 193.160156 212.203125 191.980469 C 212.171875 191.820312 212.140625 191.65625 212.109375 191.496094 C 212.164062 191.496094 212.230469 191.496094 212.285156 191.496094 C 213.574219 191.460938 214.859375 191.347656 216.128906 191.152344 C 217.402344 190.949219 218.664062 190.65625 219.886719 190.242188 C 221.109375 189.835938 222.289062 189.308594 223.398438 188.652344 C 224.507812 188 225.535156 187.230469 226.453125 186.335938 C 226.492188 186.304688 226.5 186.230469 226.460938 186.179688 Z M 205.777344 174.992188 C 205.777344 175 205.785156 175.007812 205.792969 175.019531 C 205.792969 175.019531 205.792969 175.019531 205.792969 175.007812 C 205.769531 174.992188 205.769531 174.992188 205.777344 174.992188 Z M 205.558594 181.835938 C 205.738281 181.226562 205.898438 180.617188 206.070312 180.007812 C 206.238281 179.398438 206.402344 178.789062 206.5625 178.1875 C 206.621094 177.992188 206.667969 177.796875 206.726562 177.601562 C 206.75 177.667969 206.765625 177.730469 206.789062 177.804688 C 207.152344 178.992188 207.492188 180.203125 207.84375 181.410156 C 208.191406 182.621094 208.539062 183.832031 208.894531 185.035156 C 209.070312 185.636719 209.257812 186.246094 209.4375 186.847656 L 209.988281 188.660156 L 210.320312 189.746094 C 208.53125 189.59375 206.742188 189.332031 204.960938 188.984375 C 204.425781 188.878906 203.890625 188.773438 203.355469 188.660156 C 204.183594 186.398438 204.910156 184.125 205.558594 181.835938 Z M 197.59375 189.648438 C 197.585938 189.648438 197.578125 189.648438 197.578125 189.648438 C 197.570312 189.648438 197.578125 189.648438 197.59375 189.648438 Z M 205.703125 191.113281 C 207.40625 191.339844 209.128906 191.488281 210.851562 191.511719 L 211.085938 192.28125 L 211.757812 194.507812 C 211.574219 194.371094 211.386719 194.234375 211.199219 194.101562 C 209.453125 192.898438 207.597656 191.941406 205.703125 191.113281 Z M 214.882812 201.300781 C 214.882812 201.300781 214.875 201.300781 214.882812 201.300781 C 214.882812 201.308594 214.882812 201.308594 214.882812 201.300781 Z M 214.316406 198.863281 C 214.558594 199.375 214.683594 199.9375 214.671875 200.503906 C 214.671875 200.644531 214.65625 200.789062 214.648438 200.925781 C 214.535156 200.691406 214.429688 200.441406 214.332031 200.1875 C 214.21875 199.902344 214.125 199.601562 214.027344 199.308594 C 213.929688 199.019531 213.839844 198.71875 213.75 198.417969 C 213.679688 198.179688 213.613281 197.9375 213.546875 197.703125 C 213.671875 197.839844 213.785156 197.976562 213.886719 198.125 C 214.050781 198.359375 214.195312 198.605469 214.316406 198.863281 Z M 214.316406 198.863281 " fill-opacity="1" fill-rule="nonzero"/></g><g clip-path="url(#22a42199ab)"><path fill="#000000" d="M 217.753906 185.484375 C 218.238281 185.796875 218.835938 186.015625 219.542969 186.140625 C 220.25 186.269531 221.0625 186.269531 221.972656 186.140625 C 222.304688 186.160156 222.4375 186.5625 222.363281 187.34375 C 222.289062 188.125 222.132812 189.074219 221.886719 190.191406 C 221.738281 190.8125 221.589844 191.449219 221.441406 192.109375 C 221.289062 192.765625 221.132812 193.429688 220.964844 194.105469 C 220.621094 195.464844 220.359375 196.84375 220.183594 198.234375 C 220.039062 199.457031 220.226562 200.140625 220.746094 200.289062 C 221.046875 200.363281 221.347656 200.34375 221.636719 200.234375 C 221.96875 200.105469 222.273438 199.929688 222.554688 199.714844 C 223.152344 199.253906 223.757812 198.617188 224.371094 197.800781 C 224.96875 196.988281 225.527344 196.152344 226.042969 195.285156 C 226.582031 194.394531 227.046875 193.546875 227.4375 192.738281 C 227.828125 191.933594 228.109375 191.34375 228.277344 190.960938 C 228.386719 190.941406 228.5 190.941406 228.609375 190.960938 C 228.726562 190.972656 228.828125 191.015625 228.914062 191.097656 L 228.5 191.996094 C 228.328125 192.363281 228.144531 192.757812 227.941406 193.175781 C 227.53125 193.976562 227.054688 194.832031 226.515625 195.746094 C 225.984375 196.636719 225.390625 197.488281 224.730469 198.292969 C 224.078125 199.058594 223.40625 199.679688 222.71875 200.152344 C 222.199219 200.476562 221.691406 200.640625 221.1875 200.640625 C 221 200.640625 220.8125 200.625 220.628906 200.589844 C 220.273438 200.5 219.976562 200.316406 219.738281 200.042969 C 219.460938 199.730469 219.265625 199.375 219.152344 198.976562 C 218.871094 198.191406 218.75 197.214844 218.789062 196.050781 C 218.832031 194.828125 218.960938 193.617188 219.179688 192.410156 C 219.367188 191.386719 219.597656 190.375 219.878906 189.375 C 220.160156 188.371094 220.441406 187.476562 220.71875 186.691406 C 219.84375 186.800781 219.0625 186.785156 218.375 186.636719 C 218.042969 186.566406 217.726562 186.484375 217.429688 186.390625 C 217.148438 187.253906 216.824219 188.105469 216.449219 188.933594 C 215.945312 190.101562 215.546875 191.003906 215.25 191.640625 C 215.167969 191.597656 215.082031 191.558594 214.996094 191.535156 C 214.886719 191.480469 214.777344 191.4375 214.664062 191.398438 L 215.441406 189.644531 C 215.757812 188.878906 216.074219 188.085938 216.390625 187.265625 C 216.539062 186.863281 216.671875 186.46875 216.78125 186.085938 L 216.617188 185.980469 C 216.238281 185.773438 215.914062 185.511719 215.640625 185.1875 C 215.394531 184.910156 215.210938 184.597656 215.078125 184.257812 C 214.875 183.671875 214.921875 183.144531 215.21875 182.671875 C 215.515625 182.195312 216.042969 181.941406 216.808594 181.90625 L 216.890625 181.90625 C 217.167969 181.90625 217.382812 181.96875 217.53125 182.09375 C 217.726562 182.230469 217.859375 182.414062 217.921875 182.640625 C 218.035156 182.96875 218.0625 183.390625 218.007812 183.902344 C 217.945312 184.425781 217.84375 184.945312 217.703125 185.457031 Z M 216.921875 182.34375 C 216.34375 182.378906 216.121094 182.773438 216.25 183.523438 C 216.34375 184.070312 216.632812 184.5625 217.117188 185.003906 C 217.207031 184.597656 217.300781 184.214844 217.394531 183.851562 C 217.617188 182.8125 217.460938 182.308594 216.921875 182.34375 Z M 216.921875 182.34375 " fill-opacity="1" fill-rule="nonzero"/></g><g clip-path="url(#4e2c9e92e5)"><path fill="#000000" d="M 228.730469 184.226562 C 228.683594 184.773438 228.648438 185.507812 228.628906 186.429688 C 228.609375 187.351562 228.628906 188.316406 228.679688 189.324219 C 228.695312 189.851562 228.730469 190.378906 228.78125 190.910156 C 228.8125 191.410156 228.871094 191.902344 228.957031 192.394531 C 229.074219 193.273438 229.253906 194.015625 229.492188 194.625 C 229.726562 195.234375 230.03125 195.554688 230.402344 195.585938 C 230.890625 195.632812 231.351562 195.203125 231.792969 194.296875 C 232.234375 193.347656 232.585938 192.367188 232.851562 191.355469 C 233.035156 190.628906 233.179688 189.949219 233.28125 189.324219 C 233.382812 188.695312 233.421875 188.210938 233.402344 187.867188 C 233.382812 187.226562 233.644531 186.96875 234.183594 187.101562 C 234.722656 187.234375 235.042969 187.558594 235.144531 188.066406 C 235.398438 190.144531 235.578125 192.347656 235.679688 194.675781 L 235.679688 194.96875 C 236.410156 194.34375 237.101562 193.699219 237.746094 193.039062 C 238.566406 192.234375 239.1875 191.304688 239.613281 190.246094 C 239.734375 190.261719 239.921875 190.28125 240.175781 190.296875 C 239.835938 191.214844 239.347656 192.050781 238.71875 192.808594 C 238.058594 193.5625 237.359375 194.277344 236.621094 194.957031 L 235.699219 195.75 C 235.738281 197.601562 235.632812 199.449219 235.390625 201.285156 C 235.25 202.363281 235.027344 203.429688 234.730469 204.476562 C 234.441406 205.433594 234.050781 206.347656 233.554688 207.21875 C 233.027344 208.121094 232.246094 208.65625 231.207031 208.820312 C 231.03125 208.855469 230.851562 208.871094 230.667969 208.871094 C 229.902344 208.871094 229.273438 208.574219 228.777344 207.980469 C 228.453125 207.585938 228.25 207.054688 228.167969 206.394531 C 228.082031 205.734375 228.167969 204.917969 228.425781 203.949219 C 228.785156 202.730469 229.28125 201.660156 229.910156 200.734375 C 230.519531 199.816406 231.21875 198.96875 232.003906 198.1875 C 232.496094 197.691406 233.007812 197.222656 233.539062 196.78125 L 233.867188 196.507812 L 233.867188 196.382812 C 233.867188 195.03125 233.835938 193.773438 233.769531 192.605469 C 233.699219 191.4375 233.632812 190.523438 233.566406 189.863281 C 233.566406 190.046875 233.488281 190.417969 233.339844 190.976562 C 233.1875 191.609375 233 192.234375 232.78125 192.851562 C 232.5 193.621094 232.140625 194.351562 231.699219 195.046875 C 231.277344 195.722656 230.824219 196.035156 230.339844 195.988281 C 229.769531 195.941406 229.273438 195.730469 228.855469 195.34375 C 228.421875 194.929688 228.078125 194.453125 227.824219 193.914062 C 227.574219 193.40625 227.382812 192.878906 227.242188 192.332031 C 227.089844 191.738281 226.976562 191.136719 226.894531 190.527344 C 226.757812 189.46875 226.691406 188.410156 226.6875 187.34375 L 226.6875 187.011719 C 226.703125 185.824219 226.753906 184.824219 226.839844 184.015625 C 226.910156 183.585938 227.128906 183.375 227.496094 183.375 C 227.589844 183.375 227.683594 183.378906 227.773438 183.394531 C 228.296875 183.535156 228.613281 183.8125 228.730469 184.226562 Z M 233.523438 197.65625 C 232.5625 198.53125 231.679688 199.480469 230.878906 200.496094 C 230.070312 201.535156 229.472656 202.746094 229.085938 204.128906 C 228.847656 204.9375 228.738281 205.632812 228.757812 206.207031 C 228.777344 206.785156 228.867188 207.234375 229.035156 207.5625 C 229.371094 208.1875 229.882812 208.402344 230.574219 208.207031 C 231.265625 208.011719 231.859375 207.441406 232.367188 206.5 C 232.71875 205.792969 233.007812 204.945312 233.222656 203.953125 C 233.449219 202.914062 233.609375 201.867188 233.703125 200.8125 C 233.773438 200.070312 233.824219 199.328125 233.855469 198.585938 C 233.855469 198.15625 233.863281 197.730469 233.878906 197.300781 Z M 233.523438 197.65625 " fill-opacity="1" fill-rule="nonzero"/></g><g clip-path="url(#ee191e1200)"><path fill="#000000" d="M 250.933594 197.472656 L 248.238281 197.472656 C 248.15625 197.472656 248.097656 197.414062 248.097656 197.332031 L 248.097656 196.511719 C 247.078125 197.144531 245.914062 197.488281 244.707031 197.488281 C 241.183594 197.488281 238.324219 194.621094 238.324219 191.117188 C 238.324219 187.613281 241.199219 184.746094 244.707031 184.746094 C 245.914062 184.746094 247.078125 185.082031 248.097656 185.726562 L 248.097656 184.878906 C 248.097656 184.796875 248.15625 184.738281 248.238281 184.738281 L 250.933594 184.738281 C 251.015625 184.738281 251.074219 184.796875 251.074219 184.878906 L 251.074219 197.332031 C 251.074219 197.414062 251.015625 197.472656 250.933594 197.472656 Z M 244.699219 195.335938 C 242.359375 195.335938 240.457031 193.441406 240.457031 191.109375 C 240.457031 188.773438 242.359375 186.875 244.699219 186.875 C 247.035156 186.875 248.9375 188.773438 248.9375 191.109375 C 248.9375 193.441406 247.035156 195.335938 244.699219 195.335938 Z M 244.699219 195.335938 " fill-opacity="1" fill-rule="evenodd"/></g><g clip-path="url(#85f964a760)"><path fill="#000000" d="M 252.878906 185.566406 C 253.015625 186.40625 253.125 187.277344 253.210938 188.179688 C 253.300781 189.082031 253.367188 189.972656 253.417969 190.84375 C 253.449219 190.617188 253.5 190.394531 253.566406 190.175781 C 253.648438 189.804688 253.75 189.4375 253.871094 189.074219 C 254.136719 188.210938 254.457031 187.367188 254.828125 186.542969 C 255.230469 185.636719 255.707031 184.894531 256.261719 184.316406 C 256.511719 184.023438 256.804688 183.785156 257.140625 183.601562 C 257.421875 183.449219 257.722656 183.371094 258.042969 183.375 L 258.148438 183.375 C 258.734375 183.410156 259.199219 183.648438 259.535156 184.089844 C 259.871094 184.53125 260.128906 185.109375 260.3125 185.832031 C 260.480469 186.566406 260.582031 187.410156 260.613281 188.363281 C 260.648438 189.328125 260.632812 190.292969 260.5625 191.257812 C 260.542969 191.890625 260.511719 192.519531 260.460938 193.152344 C 260.414062 193.785156 260.363281 194.375 260.3125 194.917969 C 260.226562 195.960938 260.1875 196.824219 260.1875 197.503906 C 260.1875 198.183594 260.28125 198.558594 260.464844 198.632812 C 260.6875 198.664062 260.898438 198.621094 261.097656 198.503906 C 261.363281 198.339844 261.605469 198.140625 261.824219 197.910156 C 262.277344 197.414062 262.742188 196.753906 263.210938 195.933594 C 263.683594 195.117188 264.136719 194.253906 264.574219 193.347656 C 265.015625 192.445312 265.402344 191.59375 265.734375 190.789062 C 266.070312 189.988281 266.316406 189.398438 266.46875 189.027344 C 266.5625 189.027344 266.652344 189.035156 266.746094 189.050781 C 266.847656 189.070312 266.949219 189.09375 267.046875 189.128906 C 266.878906 189.554688 266.617188 190.1875 266.265625 191.023438 C 265.910156 191.859375 265.488281 192.75 265 193.6875 C 264.546875 194.609375 264.058594 195.496094 263.535156 196.351562 C 263.015625 197.207031 262.492188 197.882812 261.96875 198.378906 C 261.722656 198.625 261.445312 198.828125 261.140625 198.992188 C 260.972656 199.074219 260.796875 199.117188 260.609375 199.121094 C 260.535156 199.117188 260.460938 199.109375 260.386719 199.09375 C 259.878906 198.992188 259.492188 198.691406 259.226562 198.199219 C 258.957031 197.703125 258.78125 197.097656 258.691406 196.378906 C 258.589844 195.519531 258.554688 194.65625 258.59375 193.792969 C 258.628906 192.835938 258.6875 191.886719 258.769531 190.953125 C 258.820312 190.320312 258.871094 189.703125 258.921875 189.109375 C 258.972656 188.511719 259 187.9375 258.996094 187.390625 C 259.046875 186.402344 259.003906 185.574219 258.871094 184.910156 C 258.738281 184.242188 258.445312 183.910156 257.992188 183.910156 C 257.472656 183.871094 256.921875 184.222656 256.335938 184.957031 C 255.746094 185.695312 255.21875 186.648438 254.75 187.824219 C 254.46875 188.472656 254.234375 189.140625 254.042969 189.820312 C 253.828125 190.554688 253.648438 191.296875 253.515625 192.046875 L 253.460938 193.789062 C 253.425781 194.367188 253.410156 194.933594 253.410156 195.480469 C 253.304688 195.90625 253.039062 196.085938 252.609375 196.015625 C 252.183594 195.945312 251.9375 195.527344 251.871094 194.761719 L 251.871094 191.839844 C 251.890625 190.730469 251.855469 189.648438 251.769531 188.589844 C 251.742188 188.054688 251.679688 187.527344 251.59375 187 C 251.539062 186.539062 251.445312 186.085938 251.316406 185.644531 C 251.433594 185.351562 251.65625 185.183594 251.980469 185.128906 C 252.300781 185.078125 252.601562 185.222656 252.878906 185.566406 Z M 252.878906 185.566406 " fill-opacity="1" fill-rule="nonzero"/></g><g clip-path="url(#60d4af9164)"><path fill="#231f20" d="M 266.625 186.675781 C 266.417969 186.636719 266.054688 186.761719 264.355469 187.015625 C 262.554688 187.285156 261.058594 186.921875 262.734375 186.226562 C 263.699219 185.828125 266.003906 185.632812 266.828125 185.414062 C 266.894531 185.109375 267.777344 179.285156 268.828125 177.601562 C 268.945312 177.414062 269.113281 177.3125 269.332031 177.304688 C 269.707031 177.289062 270.042969 177.285156 270.101562 177.636719 C 270.375 179.253906 269.832031 182.601562 269.511719 184.933594 C 269.601562 184.984375 269.414062 185.023438 272.804688 184.53125 C 273.171875 184.476562 273.574219 184.316406 274.078125 184.457031 C 274.230469 184.5 274.40625 184.554688 274.429688 184.695312 C 274.554688 185.363281 269.71875 186.109375 269.332031 186.210938 C 269.261719 186.410156 268.125 194.234375 268.511719 196.332031 C 268.632812 197 268.800781 197.226562 268.847656 197.324219 C 268.925781 197.304688 268.988281 197.296875 269.046875 197.273438 C 271.605469 196.191406 271.273438 195.289062 272.261719 195.273438 C 272.476562 195.269531 272.691406 195.269531 272.894531 195.359375 C 273.074219 195.441406 273.121094 195.519531 273.078125 195.710938 C 272.675781 197.601562 269.664062 199.039062 267.550781 198.445312 C 265.199219 197.785156 265.628906 194.714844 266.625 186.933594 C 266.636719 186.851562 266.625 186.769531 266.625 186.675781 " fill-opacity="1" fill-rule="nonzero"/></g></svg>